<?xml version="1.0" encoding="UTF-8"?>
<svg width="27px" height="38px" viewBox="0 0 27 38" version="1.1" xmlns="http://www.w3.org/2000/svg" xmlns:xlink="http://www.w3.org/1999/xlink">
    <!-- Generator: Sketch 51.3 (57544) - http://www.bohemiancoding.com/sketch -->
    <title>v</title>
    <desc>Created with Sketch.</desc>
    <defs></defs>
    <g id="v" stroke="none" stroke-width="1" fill="none" fill-rule="evenodd">
        <path d="M12.3098676,35.0090322 C11.1701138,33.3432381 9.70158386,31.2390767 7.90427965,28.696548 C5.71244517,25.5403058 4.2658342,23.4142264 3.56444673,22.3183087 C2.55620305,20.7401876 1.87673359,19.4141272 1.52604035,18.3401285 C1.17534712,17.2661298 1,16.0277424 1,14.6249685 C1,12.34546 1.56987738,10.2412985 2.70963115,8.31248425 C3.84938492,6.38366995 5.38366995,4.84938492 7.31248425,3.70963115 C9.24129855,2.56987738 11.34546,2 13.6249685,2 C15.904477,2 18.0086385,2.56987738 19.9374527,3.70963115 C21.866267,4.84938492 23.4005521,6.38366995 24.5403058,8.31248425 C25.6800596,10.2412985 26.249937,12.34546 26.249937,14.6249685 C26.249937,16.0277424 26.0745899,17.2661298 25.7238966,18.3401285 C25.3732034,19.4141272 24.693734,20.7401876 23.6854903,22.3183087 C22.9841028,23.4142264 21.5374918,25.5403058 19.3456574,28.696548 L14.9400694,35.0090322 C14.6332122,35.4473995 14.1948459,35.6665827 13.6249685,35.6665827 C13.0550911,35.6665827 12.6167248,35.4473995 12.3098676,35.0090322 Z M13.6249685,19.885372 C15.0715795,19.885372 16.3099658,19.3702912 17.3401285,18.3401285 C18.3702912,17.3099658 18.885372,16.0715795 18.885372,14.6249685 C18.885372,13.1783575 18.3702912,11.9399712 17.3401285,10.9098085 C16.3099658,9.8796458 15.0715795,9.36456496 13.6249685,9.36456496 C12.1783575,9.36456496 10.9399712,9.8796458 9.9098085,10.9098085 C8.8796458,11.9399712 8.36456496,13.1783575 8.36456496,14.6249685 C8.36456496,16.0715795 8.8796458,17.3099658 9.9098085,18.3401285 C10.9399712,19.3702912 12.1783575,19.885372 13.6249685,19.885372 Z" id="map-marker-alt" fill="#4A4A4A"></path>
    </g>
</svg>